<svg width="0" height="0" class="hidden">
  <symbol fill="none" xmlns="http://www.w3.org/2000/svg" viewBox="0 0 24 24" id="Calling">
    <g id="Iconly/Light/Calling">
      <g id="Calling">
        <path id="Stroke 1" d="M14.353 2.50012C18.054 2.91112 20.978 5.83112 21.393 9.53212" stroke="#FCBC26" stroke-width="1.5" stroke-linecap="round" stroke-linejoin="round"></path>
        <path id="Stroke 3" d="M14.353 6.04312C16.124 6.38712 17.508 7.77212 17.853 9.54312" stroke="#FCBC26" stroke-width="1.5" stroke-linecap="round" stroke-linejoin="round"></path>
        <path id="Stroke 5" fill-rule="evenodd" clip-rule="evenodd" d="M11.0315 12.4725C15.0205 16.4605 15.9254 11.8468 18.4653 14.3849C20.9138 16.8329 22.3222 17.3233 19.2188 20.4248C18.8302 20.7371 16.3613 24.4944 7.68447 15.8198C-0.993406 7.14412 2.76157 4.67257 3.07394 4.28407C6.18377 1.17397 6.66682 2.5895 9.11539 5.03745C11.6541 7.57662 7.04254 8.48454 11.0315 12.4725Z" stroke="#FCBC26" stroke-width="1.5" stroke-linecap="round" stroke-linejoin="round"></path>
      </g>
    </g>
  </symbol>
  <symbol fill="none" xmlns="http://www.w3.org/2000/svg" viewBox="0 0 18 18" id="linkedin">
    <path d="M16 0H2C0.895 0 0 0.895 0 2V16C0 17.105 0.895 18 2 18H16C17.105 18 18 17.105 18 16V2C18 0.895 17.105 0 16 0ZM4.738 14C4.041 14 3.476 13.435 3.476 12.738V8.261C3.477 7.565 4.042 7 4.738 7C5.435 7 6 7.565 6 8.262V12.739C6 13.435 5.435 14 4.738 14ZM4.694 5.717C3.923 5.717 3.408 5.203 3.408 4.517C3.408 3.831 3.922 3.317 4.779 3.317C5.55 3.317 6.065 3.831 6.065 4.517C6.065 5.203 5.551 5.717 4.694 5.717ZM13.779 14C13.105 14 12.558 13.453 12.558 12.779V10.174C12.558 9.116 11.907 9 11.663 9C11.419 9 10.605 9.035 10.605 10.174V12.779C10.605 13.453 10.058 14 9.384 14H9.303C8.629 14 8.082 13.453 8.082 12.779V8.262C8.082 7.565 8.647 7 9.344 7C10.041 7 10.606 7.565 10.606 8.262C10.606 8.262 10.888 7 12.804 7C14.023 7 15 7.977 15 10.174V12.779C15 13.453 14.453 14 13.779 14Z" fill="#FCBC26"></path>
  </symbol>
  <symbol fill="none" xmlns="http://www.w3.org/2000/svg" viewBox="0 0 24 24" id="Location">
    <g id="Iconly/Light/Location">
      <g id="Location">
        <path id="Stroke 1" fill-rule="evenodd" clip-rule="evenodd" d="M14.5 10.5006C14.5 9.11936 13.3808 8.00012 12.0005 8.00012C10.6192 8.00012 9.5 9.11936 9.5 10.5006C9.5 11.8809 10.6192 13.0001 12.0005 13.0001C13.3808 13.0001 14.5 11.8809 14.5 10.5006Z" stroke="#FCBC26" stroke-width="1.5" stroke-linecap="round" stroke-linejoin="round"></path>
        <path id="Stroke 3" fill-rule="evenodd" clip-rule="evenodd" d="M11.9995 21.0001C10.801 21.0001 4.5 15.8985 4.5 10.5634C4.5 6.38676 7.8571 3.00012 11.9995 3.00012C16.1419 3.00012 19.5 6.38676 19.5 10.5634C19.5 15.8985 13.198 21.0001 11.9995 21.0001Z" stroke="#FCBC26" stroke-width="1.5" stroke-linecap="round" stroke-linejoin="round"></path>
      </g>
    </g>
  </symbol>
  <symbol fill="none" xmlns="http://www.w3.org/2000/svg" viewBox="0 0 24 24" id="Message">
    <g id="Iconly/Light/Message">
      <g id="Message">
        <path id="Stroke 1" d="M17.9026 8.85127L13.4593 12.4643C12.6198 13.1303 11.4387 13.1303 10.5992 12.4643L6.11841 8.85127" stroke="#FCBC26" stroke-width="1.5" stroke-linecap="round" stroke-linejoin="round"></path>
        <path id="Stroke 3" fill-rule="evenodd" clip-rule="evenodd" d="M16.9089 21.0001C19.9502 21.0085 22 18.5097 22 15.4385V8.57013C22 5.49895 19.9502 3.00012 16.9089 3.00012H7.09114C4.04979 3.00012 2 5.49895 2 8.57013V15.4385C2 18.5097 4.04979 21.0085 7.09114 21.0001H16.9089Z" stroke="#FCBC26" stroke-width="1.5" stroke-linecap="round" stroke-linejoin="round"></path>
      </g>
    </g>
  </symbol>
  <symbol fill="none" xmlns="http://www.w3.org/2000/svg" viewBox="0 0 17 17" id="telegram">
    <path d="M8.5 0C13.1945 0 17 3.8055 17 8.5C17 13.1945 13.1945 17 8.5 17C3.8055 17 0 13.1945 0 8.5C0 3.8055 3.8055 0 8.5 0ZM11.432 11.965C11.588 11.4855 12.321 6.7045 12.411 5.7625C12.4385 5.477 12.348 5.2875 12.172 5.203C11.9585 5.1005 11.642 5.1515 11.275 5.284C10.7715 5.4655 4.337 8.1975 3.965 8.356C3.613 8.506 3.279 8.669 3.279 8.906C3.279 9.0725 3.378 9.166 3.65 9.263C3.933 9.364 4.646 9.58 5.067 9.696C5.4725 9.808 5.934 9.711 6.1925 9.55C6.4665 9.3795 9.6315 7.262 9.8585 7.0765C10.0855 6.891 10.2665 7.1285 10.081 7.3145C9.8955 7.5 7.7235 9.6085 7.4365 9.9005C7.0885 10.255 7.3355 10.622 7.569 10.7695C7.8355 10.9375 9.7515 12.2225 10.0405 12.429C10.3295 12.635 10.6215 12.7285 10.89 12.7285C11.158 12.728 11.2985 12.3745 11.432 11.965Z" fill="#FCBC26"></path>
  </symbol>
  <symbol fill="none" xmlns="http://www.w3.org/2000/svg" viewBox="0 0 20 16" id="twitter">
    <path d="M19.634 0.0309616C18.819 0.415962 17.432 1.13796 16.735 1.27596C16.708 1.28296 16.686 1.29196 16.66 1.29896C15.847 0.496961 14.733 -3.85089e-05 13.5 -3.85089e-05C11.015 -3.85089e-05 8.99996 2.01496 8.99996 4.49996C8.99996 4.63096 8.98896 4.87196 8.99996 4.99996C5.78196 4.99996 3.43196 3.32096 1.67296 1.16296C1.43796 0.872962 1.18796 1.02396 1.13596 1.22996C1.01896 1.69596 0.978958 2.47496 0.978958 3.03096C0.978958 4.43196 2.07396 5.80796 3.77896 6.66096C3.46496 6.74196 3.11896 6.79996 2.75896 6.79996C2.33496 6.79996 1.84696 6.68896 1.41996 6.46496C1.26196 6.38196 0.920958 6.40496 1.02196 6.80896C1.42696 8.42796 3.27496 9.56496 4.92596 9.89596C4.55096 10.117 3.75096 10.072 3.38296 10.072C3.24696 10.072 2.77396 10.04 2.46796 10.002C2.18896 9.96796 1.75996 10.04 2.11896 10.584C2.88996 11.751 4.63396 12.484 6.13496 12.512C4.75296 13.596 2.49296 13.992 0.327958 13.992C-0.110042 13.982 -0.0880417 14.481 0.264958 14.666C1.86196 15.504 4.47796 16 6.34696 16C13.777 16 18 10.337 18 4.99896C18 4.91296 17.998 4.73296 17.995 4.55196C17.995 4.53396 18 4.51696 18 4.49896C18 4.47196 17.992 4.44596 17.992 4.41896C17.989 4.28296 17.986 4.15596 17.983 4.08996C18.572 3.66496 19.474 2.92696 19.93 2.36196C20.085 2.16996 19.96 1.93696 19.749 2.00996C19.206 2.19896 18.267 2.56496 17.679 2.63496C18.856 1.85596 19.438 1.17796 19.938 0.424962C20.109 0.167962 19.895 -0.0930384 19.634 0.0309616Z" fill="#FCBC26"></path>
  </symbol>
</svg>